<?xml version="1.0" encoding="UTF-8"?>
<svg xmlns="http://www.w3.org/2000/svg" viewBox="0 0 800 800">
<g transform="translate(0,800) scale(0.1,-0.1)" stroke="none">
<!-- Cat silhouette -->
<path fill="#ffffff" d="M4733 6505 c-249 -170 -458 -386 -535 -551 l-32 -69 0 -75 c0 -79 25
-153 65 -196 l20 -21 -60 -12 c-78 -15 -172 -63 -210 -107 -17 -19 -43 -58
-57 -86 l-26 -51 4 -81 c2 -53 10 -95 23 -121 25 -52 101 -127 155 -155 l42
-22 -53 -47 c-56 -50 -127 -141 -111 -141 5 0 15 7 22 15 22 27 189 127 268
160 120 50 241 75 370 75 64 0 113 -4 117 -10 4 -7 -12 -8 -47 -4 -73 8 -240
-19 -324 -53 -75 -29 -134 -61 -134 -71 0 -12 194 -5 225 7 59 24 168 41 253
40 l87 -2 -75 -8 c-127 -15 -243 -59 -282 -106 l-13 -17 20 8 c88 35 169 33
345 -9 153 -37 227 -43 292 -23 48 14 122 77 148 127 11 20 30 48 41 63 35 43
28 71 -34 137 -69 75 -107 150 -113 227 -7 69 -28 143 -57 193 -35 61 -125
167 -192 225 -42 37 -68 69 -76 93 -15 48 -6 238 21 428 24 170 26 280 6 288
-8 3 -50 -19 -93 -48z m122 -1150 c32 -9 65 -21 73 -27 19 -16 53 -86 44 -91
-21 -13 -102 28 -157 78 -67 61 -62 66 40 40z"/>
<!-- Main circle with J. text -->
<path fill="#ffffff" d="M3823 6535 c-236 -31 -478 -97 -693 -190 -260 -112 -519 -286 -734
-495 -439 -425 -727 -1026 -776 -1625 -30 -371 11 -727 123 -1055 l33 -95 79
-57 c448 -322 1063 -383 1625 -161 122 48 230 99 230 109 0 3 -30 36 -67 73
-117 116 -186 234 -239 408 l-27 88 -8 650 c-12 860 -2 998 86 1268 109 336
366 610 653 697 53 16 78 30 98 53 58 72 193 202 259 250 39 28 72 52 74 54
12 8 -17 14 -140 28 -161 18 -435 18 -576 0z m-833 -2112 l0 -888 -15 -68
c-21 -101 -76 -207 -146 -281 -73 -78 -133 -118 -228 -151 -250 -88 -516 11
-622 232 l-33 68 0 70 c-1 88 21 131 84 163 52 26 95 28 150 6 52 -21 80 -67
90 -152 l9 -67 25 -22 c34 -29 99 -46 139 -37 83 18 140 68 174 155 l18 44 5
849 5 849 130 58 c91 41 143 59 173 59 l42 0 0 -887z m290 -953 c60 -43 62
-137 4 -191 -20 -19 -36 -24 -79 -24 -43 0 -59 5 -79 24 -36 34 -50 81 -37
129 23 85 116 116 191 62z"/>
<!-- Right arc -->
<path fill="#ffffff" d="M4946 6348 c-37 -135 -71 -380 -62 -440 l7 -47 122 -123 c153 -154
184 -208 203 -349 14 -113 35 -162 108 -252 l50 -62 4 -51 c3 -41 -1 -64 -20
-106 -58 -124 -172 -234 -275 -264 l-55 -16 -127 7 -128 7 -26 -23 c-14 -13
-29 -36 -33 -51 -8 -35 26 -68 98 -94 l53 -18 562 -6 561 -5 27 -25 c59 -56
95 -217 115 -515 39 -589 -101 -1083 -423 -1495 -68 -87 -234 -257 -328 -336
-180 -150 -464 -316 -705 -411 -168 -66 -407 -126 -589 -148 l-110 -13 135 -1
c561 -4 1192 264 1614 685 401 402 656 934 722 1504 16 145 19 477 4 600 -50
419 -191 816 -412 1157 -226 347 -573 657 -942 839 -72 35 -134 64 -138 64 -5
0 -10 -6 -12 -12z"/>
<!-- Q letter -->
<path fill="#ffffff" d="M3975 4555 c-208 -46 -387 -211 -465 -430 -70 -196 -67 -451 7 -635
38 -92 75 -152 137 -217 74 -78 140 -121 246 -160 l75 -27 130 0 130 0 63 23
64 23 14 -20 c249 -356 727 -472 1139 -276 107 51 234 154 235 192 0 25 -28
22 -106 -11 -90 -39 -173 -60 -293 -78 -267 -38 -566 76 -745 285 l-48 56 35
48 c162 221 201 558 97 820 -123 308 -414 474 -715 407z m250 -242 c64 -21
152 -107 193 -189 79 -158 82 -409 6 -572 l-26 -57 -16 25 c-77 113 -148 169
-217 170 -70 0 -145 -42 -145 -82 0 -10 26 -49 58 -87 31 -38 76 -96 100 -130
l42 -61 -27 -7 c-16 -5 -57 -8 -93 -8 l-65 0 -67 33 c-160 79 -249 276 -235
522 20 341 230 530 492 443z"/>
<!-- u letter -->
<path fill="#ffffff" d="M4902 4264 l-22 -15 0 -403 0 -402 16 -55 c33 -112 94 -183 200 -235
l59 -29 125 0 125 1 55 22 c30 12 79 40 108 62 29 22 55 40 57 40 3 0 5 -11 5
-25 0 -14 8 -29 21 -35 66 -36 155 59 194 207 l15 58 0 400 c0 220 0 406 0
413 0 9 -28 12 -108 12 l-109 0 -16 -18 -17 -19 0 -339 0 -340 -15 -52 c-31
-104 -116 -162 -238 -162 -118 0 -179 43 -211 150 l-16 54 0 363 0 363 -103 0
c-77 0 -108 -4 -125 -16z"/>
<!-- Bottom orange crescent -->
<path fill="#c06030" d="M3726 2815 c-82 -41 -170 -81 -195 -90 -115 -41 -246 -78 -361 -102
l-125 -27 -225 -1 c-172 0 -246 4 -315 17 -189 36 -400 110 -546 192 -43 25
-79 42 -79 40 0 -9 79 -143 135 -229 186 -286 486 -579 762 -743 275 -164 558
-266 848 -308 l117 -17 151 11 c331 25 598 110 897 288 169 101 284 188 414
313 165 160 354 407 330 431 -6 6 -53 -1 -119 -17 l-110 -27 -185 0 -185 0
-87 22 c-131 32 -259 85 -393 161 -249 142 -305 161 -480 160 l-100 0 -149
-74z"/>
</g>
</svg>
